<svg width="62" height="94" viewBox="0 0 62 94" fill="none" xmlns="http://www.w3.org/2000/svg">
<path d="M30.5462 28.3399H31.6999C32.1327 28.3399 32.5665 28.3399 33.0013 28.342C35.9884 28.3472 38.3796 30.6464 38.4457 33.5746C38.5169 36.7507 36.0205 38.8578 33.5632 39.0602C33.2513 39.0861 32.9249 39.0861 32.5758 39.0861H32.4808C26.6594 39.0871 20.8371 39.0861 15.0168 39.084H12.8714V72.4338H19.7246V67.9418C19.7246 67.4408 19.7246 66.9399 19.7246 66.44V66.2902C19.7246 65.7397 19.7246 65.1881 19.7246 64.6386C19.7246 64.0953 19.7257 63.551 19.7267 63.0066C19.7267 62.4489 19.7267 61.8922 19.7288 61.3334C19.7288 60.2581 19.7288 59.185 19.7308 58.1087C19.7308 57.0066 19.7308 55.9066 19.7329 54.8045C19.7329 54.254 19.7329 53.7035 19.7329 53.1529V53.0021C19.7329 52.5012 19.7329 52.0002 19.7329 51.4993C19.7329 51.2287 19.7329 50.958 19.7329 50.6874V50.5934C19.7329 49.8095 19.7308 48.9987 19.737 48.2033C19.7401 47.8584 19.737 47.5113 19.735 47.1736C19.7329 46.7986 19.7298 46.4154 19.735 46.0302C20.9083 46.0302 22.0806 46.0312 23.254 46.0322C26.4033 46.0363 29.66 46.0405 32.8888 46.0095C34.0043 45.9992 35.1466 45.8515 36.1909 45.5829C39.147 44.8248 41.6972 42.9924 43.3705 40.4206C45.0541 37.8332 45.6996 34.7201 45.1884 31.6534C44.7535 29.0464 43.4407 26.5995 41.4917 24.7631C39.5529 22.9359 37.0554 21.778 34.4629 21.5012C34.0508 21.4558 33.6293 21.433 33.211 21.433C27.3628 21.431 21.5146 21.4299 15.6675 21.4299H5.27768L4.12808 21.4392L4.04648 22.4917V22.4969C4.04441 22.5093 4.04338 22.5217 4.04235 22.5341L4.03099 22.6301C4.01549 22.7665 4 22.8946 4 23.0485L4.0062 28.3337H30.5462V28.3389V28.3399Z" fill="#000573"/>
<path d="M27.6478 48.473C26.2679 48.475 24.8879 48.4792 23.508 48.4792C23.3634 48.4792 23.226 48.4874 23.0814 48.4967C23.0019 48.5019 22.9182 48.5071 22.8294 48.5112L22.2778 48.535V71.906H28.9213C31.7339 71.906 34.5929 71.906 37.4179 71.8988C37.989 71.8967 38.5922 71.8523 39.213 71.7666C42.3695 71.3297 45.242 69.5542 47.0919 66.8965C48.4728 64.9134 49.1866 62.6183 49.1866 60.2468C49.1866 59.3823 49.0915 58.5095 48.8994 57.6367C48.352 55.1526 46.9731 52.8782 45.0116 51.2318C42.9056 49.4625 40.282 48.5143 37.4272 48.4895C34.1663 48.4606 30.8508 48.4668 27.6457 48.473H27.6478ZM37.8424 54.2902C40.0631 54.3119 43.2702 56.0957 43.4489 59.9969C43.5873 63.0181 41.3439 65.6953 38.3402 66.0961C37.8827 66.1549 37.4344 66.187 37.0068 66.188C35.0143 66.1932 32.9888 66.1921 31.0284 66.1901C30.1402 66.1901 29.2519 66.1901 28.3636 66.1901H28.0155V54.2654H30.3664C32.8164 54.2654 35.35 54.2654 37.8424 54.2912V54.2902Z" fill="#FFB800"/>
<path d="M57.8317 57.5706C57.2998 53.0827 55.3745 49.1195 52.1106 45.7926C51.715 45.3898 51.2946 45.0024 50.8877 44.6285C50.803 44.5511 50.7183 44.4726 50.6336 44.3951C50.6604 44.3476 50.6863 44.3011 50.7141 44.2546C53.3005 39.8535 54.1609 35.063 53.2736 30.0173C52.4473 25.3218 49.9674 21.0385 46.2893 17.9574C42.6132 14.8773 37.958 13.1792 33.1799 13.1751C32.9144 13.1751 32.648 13.1751 32.3815 13.1751V4H26.7285V13.172C25.6832 13.172 24.6379 13.172 23.5937 13.171V4H17.9407V13.17C15.564 13.17 13.2008 13.17 10.8623 13.1689H4.70635V18.9231H5.28374C7.13363 18.9211 8.98353 18.919 10.8324 18.9169C13.1801 18.9138 15.5537 18.9118 17.9397 18.9097V18.9159H23.5927V18.9087C24.6369 18.9087 25.6832 18.9097 26.7275 18.9118V18.9159H29.0132C30.3519 18.919 31.6884 18.9231 33.0219 18.9283C33.5435 18.9304 34.0599 18.9572 34.5588 19.0099L34.6032 19.014C34.6456 19.0181 34.6879 19.0223 34.7303 19.0285H34.7406C41.4337 19.7949 46.6312 24.7734 47.6733 31.419C48.3561 35.7705 47.2519 39.7388 44.3908 43.2166C44.0799 43.5946 43.7577 43.9778 43.4457 44.3476C43.2567 44.5728 43.0667 44.7979 42.8807 45.02C42.8301 45.0799 42.7899 45.1377 42.7382 45.2111C42.7155 45.2441 42.6886 45.2823 42.6545 45.3288L42.292 45.8349L42.8239 46.1572C43.0904 46.3194 43.3538 46.4774 43.6131 46.6334C44.0923 46.9215 44.5447 47.1942 45.0013 47.4752C48.9882 49.9386 51.3638 53.3936 52.061 57.7451C52.9266 63.1523 51.2471 67.7703 47.0681 71.4722C45.0539 73.256 42.5936 74.3901 39.7563 74.8425C38.9899 74.9654 38.1512 75.0274 37.2629 75.0274C34.4328 75.0294 17.2941 75.0305 10.3511 75.0315V30.8209H4.58447V31.3983C4.5917 37.4789 4.5979 45.4115 4.6041 53.4989C4.61029 61.3953 4.61649 69.4364 4.62372 76.0448L4.58447 76.0344V80.7258H7.20593V80.7278H7.78332C8.44643 80.7278 9.86561 80.7268 11.7434 80.7258H17.9407V89.9908H23.5937V80.7217C24.6545 80.7217 25.7059 80.7217 26.7285 80.7206V89.9908H32.3815V80.7186C34.786 80.7175 36.6215 80.7165 37.4085 80.7144C38.5633 80.7124 39.7759 80.6101 41.0143 80.4077C45.5291 79.6671 49.4024 77.5693 52.5269 74.1711C56.8009 69.52 58.5858 63.9352 57.8317 57.5716V57.5706Z" fill="#FF5C00"/>
</svg>
