<svg width="88" height="61" viewBox="0 0 88 61" fill="none" xmlns="http://www.w3.org/2000/svg">
<g clip-path="url(#clip0_2197_211)">
<path d="M70.5449 56.9999L56.5542 56.995L50.5312 44.9464L57.606 30.778L63.5495 42.9954L70.5449 56.9999Z" fill="#FF5C00"/>
<path d="M84.0001 30.0681L70.5453 57L63.5499 42.9954L70.0094 30.0681L63.9865 17.9996L63.9666 17.9649L57.6063 30.778L50.7251 16.833L57.14 4H70.9769L84.0001 30.0681Z" fill="#FFB800"/>
<path d="M57.6061 30.778L44.5084 57H30.6616L50.7249 16.833L57.6061 30.778Z" fill="#000573"/>
<path d="M50.7249 16.833L43.6055 31.0908L37.2402 18.362L44.4043 4.01489L50.7249 16.833Z" fill="#FF5C00"/>
<path d="M37.2403 18.362L17.9361 57H4L30.0713 4.01489L37.2403 18.362Z" fill="#000573"/>
</g>
<defs>
<clipPath id="clip0_2197_211">
<rect width="80" height="53" fill="white" transform="translate(4 4)"/>
</clipPath>
</defs>
</svg>
