<?xml version="1.0" encoding="UTF-8"?>
<svg version="1.1" xmlns="http://www.w3.org/2000/svg" width="439" height="409">
<path d="M0 0 C0.95616211 0.67651611 0.95616211 0.67651611 1.93164062 1.36669922 C10.59640722 7.54714747 18.6407576 14.14446593 26.328125 21.50390625 C27.65070313 22.73947266 27.65070313 22.73947266 29 24 C29.59296875 24.64839844 30.1859375 25.29679687 30.796875 25.96484375 C33.90354498 27.42453798 36.09163628 26.42217098 39.29248047 25.57275391 C68.22292053 19.45275279 98.21395168 29.84113043 123 44 C121.10861922 72.37071176 113.96343874 101.58328411 94 123 C93.22398437 123.556875 92.44796875 124.11375 91.6484375 124.6875 C88.99332742 126.65830336 87.53048173 128.04835666 86 131 C85.94564005 134.83237636 86.32351098 138.33990816 86.86938477 142.12133789 C93.95916811 191.59981967 80.11040363 245.12873844 50.27636719 285.16821289 C48.23845031 287.82381696 46.13567365 290.42300058 44 293 C43.51354004 293.58797363 43.02708008 294.17594727 42.52587891 294.78173828 C33.48005732 305.64878911 24.10688418 315.19665719 13 324 C12.03449219 324.7940625 11.06898438 325.588125 10.07421875 326.40625 C-30.27708402 358.81034574 -84.16065197 372.39524904 -135.21459961 367.0546875 C-188.68280652 360.65242966 -237.5124119 333.79750569 -271.27832031 291.69433594 C-304.41276432 248.75128588 -318.89411936 195.21744486 -312.75 141.41796875 C-308.68288898 110.0406642 -297.47050864 78.81135182 -279 53 C-278.29617188 52.00613281 -277.59234375 51.01226562 -276.8671875 49.98828125 C-265.87586512 34.91953283 -253.6325662 21.57530204 -239 10 C-237.48212891 8.77410156 -237.48212891 8.77410156 -235.93359375 7.5234375 C-170.06476357 -45.0655511 -69.00103344 -49.18943188 0 0 Z " fill="#FF9931" transform="translate(315,38)"/>
<path d="M0 0 C0.95616211 0.67651611 0.95616211 0.67651611 1.93164062 1.36669922 C10.59640722 7.54714747 18.6407576 14.14446593 26.328125 21.50390625 C27.65070313 22.73947266 27.65070313 22.73947266 29 24 C29.59296875 24.64839844 30.1859375 25.29679687 30.796875 25.96484375 C33.90354498 27.42453798 36.09163628 26.42217098 39.29248047 25.57275391 C68.22292053 19.45275279 98.21395168 29.84113043 123 44 C121.10861922 72.37071176 113.96343874 101.58328411 94 123 C93.22398437 123.556875 92.44796875 124.11375 91.6484375 124.6875 C88.99332742 126.65830336 87.53048173 128.04835666 86 131 C85.94564005 134.83237636 86.32351098 138.33990816 86.86938477 142.12133789 C93.95916811 191.59981967 80.11040363 245.12873844 50.27636719 285.16821289 C48.23845031 287.82381696 46.13567365 290.42300058 44 293 C43.51354004 293.58797363 43.02708008 294.17594727 42.52587891 294.78173828 C33.48005732 305.64878911 24.10688418 315.19665719 13 324 C12.03449219 324.7940625 11.06898438 325.588125 10.07421875 326.40625 C-30.27708402 358.81034574 -84.16065197 372.39524904 -135.21459961 367.0546875 C-188.68280652 360.65242966 -237.5124119 333.79750569 -271.27832031 291.69433594 C-304.41276432 248.75128588 -318.89411936 195.21744486 -312.75 141.41796875 C-308.68288898 110.0406642 -297.47050864 78.81135182 -279 53 C-278.29617188 52.00613281 -277.59234375 51.01226562 -276.8671875 49.98828125 C-265.87586512 34.91953283 -253.6325662 21.57530204 -239 10 C-237.48212891 8.77410156 -237.48212891 8.77410156 -235.93359375 7.5234375 C-170.06476357 -45.0655511 -69.00103344 -49.18943188 0 0 Z M-149 -5 C-150.22001709 -4.74629639 -151.44003418 -4.49259277 -152.69702148 -4.23120117 C-197.72432021 5.43338399 -236.407117 35.16467048 -261.5625 73.125 C-273.79576503 92.11785121 -282.21070583 113.7178829 -286 136 C-286.20367187 137.04542969 -286.40734375 138.09085938 -286.6171875 139.16796875 C-289.91229929 158.78065469 -289.81800426 181.41933166 -285.1875 200.8125 C-285.01081787 201.57385254 -284.83413574 202.33520508 -284.65209961 203.11962891 C-284.1130164 205.41605167 -283.55875702 207.7082937 -283 210 C-282.8359668 210.68594238 -282.67193359 211.37188477 -282.50292969 212.07861328 C-271.8015594 256.44244061 -241.24894389 293.99587421 -202.9296875 317.84765625 C-197.15060588 321.29872726 -191.11876604 324.20785664 -185 327 C-184.32743164 327.31066406 -183.65486328 327.62132812 -182.96191406 327.94140625 C-150.41333883 342.77995557 -111.90843179 346.2335623 -77 339 C-75.97640381 338.79914795 -75.97640381 338.79914795 -74.93212891 338.59423828 C-45.04461523 332.5934598 -16.24586124 316.60812912 6 296 C6.56138672 295.48244141 7.12277344 294.96488281 7.70117188 294.43164062 C30.68660791 272.98369195 47.71352045 245.38375836 56 215 C56.26296875 214.13890625 56.5259375 213.2778125 56.796875 212.390625 C57.62266806 209.60989328 58.32713173 206.82170563 59 204 C59.42152344 202.30617187 59.42152344 202.30617187 59.8515625 200.578125 C62.27655158 189.5199517 62.26852519 178.45290745 62.25 167.1875 C62.24922455 166.37870392 62.2484491 165.56990784 62.24765015 164.73660278 C62.24116857 162.40107551 62.22486149 160.0659003 62.203125 157.73046875 C62.19654625 156.6735936 62.19654625 156.6735936 62.18983459 155.59536743 C62.13770611 151.9471492 61.85765152 148.54962888 61 145 C59.27073126 145.31193464 57.54158956 145.62457362 55.8125 145.9375 C54.84957031 146.11152344 53.88664062 146.28554687 52.89453125 146.46484375 C51.17334773 146.78306527 49.45694452 147.13434474 47.7578125 147.5546875 C26.74766289 150.94726123 3.34944659 146.53230224 -15.4375 136.76953125 C-19.4491647 134.77689517 -20.81123531 134.63409847 -25 136 C-28.18401398 137.0476623 -28.18401398 137.0476623 -31 139 C-31.97767359 142.0564968 -31.97767359 142.0564968 -32.0625 145.5625 C-32.74615115 152.37786764 -34.57863402 157.14420054 -38 163 C-38.2990625 163.70898438 -38.598125 164.41796875 -38.90625 165.1484375 C-40.29282831 167.49571649 -41.5050562 167.97455521 -44 169 C-45.35467352 169.66563613 -46.70884255 170.33229999 -48.0625 171 C-48.73410156 171.33 -49.40570313 171.66 -50.09765625 172 C-52.23387615 173.08091824 -52.23387615 173.08091824 -55 175 C-54.27554688 175.38929688 -53.55109375 175.77859375 -52.8046875 176.1796875 C-44.63577973 180.90676213 -40.00140431 185.99578706 -37 195 C-35.83805275 210.02912098 -38.77099234 225.30604812 -48.77734375 237.09375 C-55.97813215 244.04420424 -64.91974047 246.48050646 -74.7421875 246.40234375 C-75.73476562 246.37269531 -76.72734375 246.34304688 -77.75 246.3125 C-79.30847656 246.28929687 -79.30847656 246.28929687 -80.8984375 246.265625 C-88.95492057 246.11569045 -96.97240758 245.68373139 -105 245 C-105.99981823 249.09272096 -106.99665695 253.18615246 -107.99072266 257.28027344 C-108.32941897 258.67337717 -108.66893332 260.06628227 -109.00927734 261.45898438 C-109.49791453 263.45912027 -109.98361983 265.4599485 -110.46875 267.4609375 C-110.76201172 268.66540527 -111.05527344 269.86987305 -111.35742188 271.11083984 C-112.07236838 273.83209015 -112.07236838 273.83209015 -112 276 C-113.12019531 275.6390625 -114.24039063 275.278125 -115.39453125 274.90625 C-116.86711558 274.4372741 -118.33977581 273.9685365 -119.8125 273.5 C-120.91948242 273.14228516 -120.91948242 273.14228516 -122.04882812 272.77734375 C-125.13255196 271.80059864 -127.74495809 271 -131 271 C-130.66226563 269.7934375 -130.32453125 268.586875 -129.9765625 267.34375 C-129.52598548 265.72918235 -129.07546782 264.11459813 -128.625 262.5 C-128.40328125 261.70851563 -128.1815625 260.91703125 -127.953125 260.1015625 C-124.85323577 250.2049044 -124.85323577 250.2049044 -124 240 C-127.40860389 238.72177354 -130.61390978 237.84695869 -134.21875 237.43359375 C-135.4665625 237.29050781 -136.714375 237.14742187 -138 237 C-138.99991091 240.95025596 -139.99674696 244.90127363 -140.99072266 248.85302734 C-141.32939287 250.19764226 -141.66890698 251.54204491 -142.00927734 252.88623047 C-142.49798109 254.816824 -142.98341312 256.74824481 -143.46875 258.6796875 C-143.76201172 259.84226074 -144.05527344 261.00483398 -144.35742188 262.20263672 C-145.07462595 264.84650283 -145.07462595 264.84650283 -145 267 C-145.95261719 266.71125 -146.90523437 266.4225 -147.88671875 266.125 C-149.14097656 265.75375 -150.39523438 265.3825 -151.6875 265 C-152.92886719 264.62875 -154.17023438 264.2575 -155.44921875 263.875 C-158.5374917 263.11397344 -160.86550689 262.92475335 -164 263 C-163.7827124 262.20827393 -163.5654248 261.41654785 -163.34155273 260.60083008 C-162.36222821 257.00769131 -161.3997122 253.41025725 -160.4375 249.8125 C-160.09525391 248.56662109 -159.75300781 247.32074219 -159.40039062 246.03710938 C-159.08134766 244.83505859 -158.76230469 243.63300781 -158.43359375 242.39453125 C-158.13509521 241.28956299 -157.83659668 240.18459473 -157.52905273 239.04614258 C-156.99496459 235.97100745 -157.16358177 233.97958842 -158 231 C-169.29036955 227.81151601 -180.60188237 224.77964994 -192 222 C-191.2422101 216.95446216 -189.17265352 212.5940336 -187.08398438 207.99609375 C-185.81546029 205.13961094 -185 203.16482707 -185 200 C-183.98679687 200.2165625 -182.97359375 200.433125 -181.9296875 200.65625 C-180.57818996 200.93781199 -179.22662375 201.2190445 -177.875 201.5 C-177.20984375 201.64308594 -176.5446875 201.78617188 -175.859375 201.93359375 C-171.85019533 202.75901309 -168.08632586 203.42639922 -164 203 C-160.47324424 200.54165363 -159.92015788 196.88209964 -158.984375 192.921875 C-158.8077684 192.21087143 -158.6311618 191.49986786 -158.44920349 190.76731873 C-157.87212876 188.43068618 -157.31082918 186.09058012 -156.75 183.75 C-156.35260381 182.1252516 -155.95456631 180.50065993 -155.5559082 178.8762207 C-152.68696907 167.12316166 -149.97126774 155.33474537 -147.38378906 143.51660156 C-146.31502167 138.66088421 -145.24686423 133.82021617 -143.91259766 129.02978516 C-143.72812576 128.36529861 -143.54365387 127.70081207 -143.35359192 127.01618958 C-142.83250153 125.16355639 -142.29814476 123.31466938 -141.76293945 121.46606445 C-140.74909532 116.86013 -140.33837192 112.77812547 -142 108.3125 C-147.11653866 102.39650217 -154.5794781 101.15565505 -162 100 C-161.71125 99.04738281 -161.4225 98.09476562 -161.125 97.11328125 C-160.568125 95.23189453 -160.568125 95.23189453 -160 93.3125 C-159.443125 91.45044922 -159.443125 91.45044922 -158.875 89.55078125 C-158.11397344 86.4625083 -157.92475335 84.13449311 -158 81 C-153.23103534 82.12065339 -148.46215758 83.24167561 -143.69335938 84.36303711 C-142.07163833 84.74432304 -140.44989375 85.12550884 -138.828125 85.5065918 C-136.49472937 86.05491117 -134.16141913 86.60359265 -131.828125 87.15234375 C-130.74352997 87.40708717 -130.74352997 87.40708717 -129.63702393 87.66697693 C-126.41933171 88.42405997 -123.20348768 89.18463266 -120 90 C-119.20701081 87.167031 -118.41557728 84.33364215 -117.625 81.5 C-117.40328125 80.70851563 -117.1815625 79.91703125 -116.953125 79.1015625 C-116.29401188 76.73650955 -115.64490654 74.3689633 -115 72 C-114.79858398 71.27296875 -114.59716797 70.5459375 -114.38964844 69.796875 C-113.40938744 66.11787076 -112.76173397 62.81225651 -113 59 C-112.04738281 59.28875 -111.09476563 59.5775 -110.11328125 59.875 C-108.85902344 60.24625 -107.60476562 60.6175 -106.3125 61 C-104.45044922 61.556875 -104.45044922 61.556875 -102.55078125 62.125 C-99.4625083 62.88602656 -97.13449311 63.07524665 -94 63 C-94.26478149 64.13429443 -94.26478149 64.13429443 -94.53491211 65.29150391 C-95.33771418 68.73555384 -96.13763375 72.1802671 -96.9375 75.625 C-97.21529297 76.81480469 -97.49308594 78.00460938 -97.77929688 79.23046875 C-98.18051758 80.96103516 -98.18051758 80.96103516 -98.58984375 82.7265625 C-98.95903931 84.31331787 -98.95903931 84.31331787 -99.33569336 85.93212891 C-99.98791252 88.94417815 -100.51931162 91.95630514 -101 95 C-99.23050388 95.50471197 -97.45934777 96.00360685 -95.6875 96.5 C-94.70136719 96.7784375 -93.71523437 97.056875 -92.69921875 97.34375 C-89.97712797 98.11812196 -89.97712797 98.11812196 -87 98 C-86.00008909 94.04974404 -85.00325304 90.09872637 -84.00927734 86.14697266 C-83.67060713 84.80235774 -83.33109302 83.45795509 -82.99072266 82.11376953 C-82.50201891 80.183176 -82.01658688 78.25175519 -81.53125 76.3203125 C-81.23798828 75.15773926 -80.94472656 73.99516602 -80.64257812 72.79736328 C-79.92537405 70.15349717 -79.92537405 70.15349717 -80 68 C-78.79601562 68.28875 -77.59203125 68.5775 -76.3515625 68.875 C-74.7760696 69.25011736 -73.20054724 69.62511095 -71.625 70 C-70.43390625 70.28617188 -70.43390625 70.28617188 -69.21875 70.578125 C-68.45820313 70.75859375 -67.69765625 70.9390625 -66.9140625 71.125 C-66.2123291 71.29257813 -65.5105957 71.46015625 -64.78759766 71.6328125 C-62.97763707 72.06706916 -62.97763707 72.06706916 -61 72 C-61.21205078 72.79172607 -61.42410156 73.58345215 -61.64257812 74.39916992 C-62.60144655 77.9936094 -63.55081497 81.59049188 -64.5 85.1875 C-65.00080078 87.05631836 -65.00080078 87.05631836 -65.51171875 88.96289062 C-65.98544922 90.7659668 -65.98544922 90.7659668 -66.46875 92.60546875 C-66.76201172 93.71043701 -67.05527344 94.81540527 -67.35742188 95.95385742 C-67.94723233 98.74985478 -68.12958035 101.15617421 -68 104 C-67.27296875 104.27972656 -66.5459375 104.55945313 -65.796875 104.84765625 C-47.98663067 111.94892034 -47.98663067 111.94892034 -42.30859375 117.71875 C-41.87675781 118.1415625 -41.44492187 118.564375 -41 119 C-37.02648033 118.79086739 -34.0532535 117.51045288 -31 115 C-29.88451541 111.99436702 -29.47175414 108.91180629 -29 105.75 C-24.7077728 81.36910049 -14.66630568 59.71721352 4 43 C4.99 42.34 5.98 41.68 7 41 C-0.52987271 23.430297 -31.30250542 10.09878686 -47.84375 3.37890625 C-51.20427826 2.14183105 -54.57564277 1.04643984 -58 0 C-59.2986129 -0.4309807 -60.59677066 -0.8633346 -61.89453125 -1.296875 C-79.13748108 -6.90508855 -96.22098113 -8.27535623 -114.25 -8.375 C-115.00278229 -8.38294586 -115.75556458 -8.39089172 -116.53115845 -8.39907837 C-127.66588362 -8.48935541 -138.10543544 -7.27002517 -149 -5 Z " fill="#FEFEFD" transform="translate(315,38)"/>
<path d="M0 0 C0.71808838 0.20520264 1.43617676 0.41040527 2.17602539 0.62182617 C6.42746383 1.88957289 10.26279989 3.44919994 14.1875 5.5625 C12.69881593 26.77624793 3.30083839 47.19666461 -12.2109375 61.82421875 C-17.90511906 66.68313393 -23.88111997 69.81550146 -30.8125 72.5625 C-31.60011719 72.91570312 -32.38773437 73.26890625 -33.19921875 73.6328125 C-47.07043772 78.56756603 -67.51360132 76.39980286 -80.8125 70.5625 C-78.26916567 67.65715822 -75.4101726 66.12882992 -72.0078125 64.34765625 C-70.29658203 63.44176758 -70.29658203 63.44176758 -68.55078125 62.51757812 C-67.34667741 61.886102 -66.14224723 61.25524778 -64.9375 60.625 C-62.5826189 59.39275031 -60.23188284 58.15354805 -57.8828125 56.91015625 C-56.83883301 56.36367432 -55.79485352 55.81719238 -54.71923828 55.25415039 C-49.44157007 52.24200055 -49.44157007 52.24200055 -45.8125 47.5625 C-45.27884487 41.74904053 -45.27884487 41.74904053 -47.6875 36.625 C-50.4130065 33.97965546 -51.2353729 33.60397099 -55.06396484 33.32885742 C-59.08209598 33.57930366 -61.26894812 34.4109289 -64.7890625 36.30078125 C-65.871875 36.87376953 -66.9546875 37.44675781 -68.0703125 38.03710938 C-69.18148438 38.64361328 -70.29265625 39.25011719 -71.4375 39.875 C-72.55640625 40.46990234 -73.6753125 41.06480469 -74.828125 41.67773438 C-80.75881005 44.84131863 -80.75881005 44.84131863 -86.54443359 48.25854492 C-88.8125 49.5625 -88.8125 49.5625 -90.8125 49.5625 C-88.95798229 32.74394282 -78.43804759 17.3568613 -65.8125 6.5625 C-46.54537138 -7.9740003 -21.88772429 -6.2573004 0 0 Z " fill="#07B23D" transform="translate(399.8125,89.4375)"/>
<path d="M0 0 C0.71808838 0.20520264 1.43617676 0.41040527 2.17602539 0.62182617 C6.42746383 1.88957289 10.26279989 3.44919994 14.1875 5.5625 C9.55287048 9.71700933 4.2552734 12.26797983 -1.25 15.0625 C-10.3343723 19.73207787 -19.33605562 24.52640465 -28.27709961 29.46484375 C-34.05327783 32.64408757 -39.89406627 35.6565988 -45.8125 38.5625 C-47.14713542 37.26041667 -48.48177083 35.95833333 -49.81640625 34.65625 C-52.86723622 32.98456235 -55.37666459 33.3429914 -58.8125 33.5625 C-61.87421093 34.65393307 -61.87421093 34.65393307 -64.7890625 36.30078125 C-65.871875 36.87376953 -66.9546875 37.44675781 -68.0703125 38.03710938 C-69.18148438 38.64361328 -70.29265625 39.25011719 -71.4375 39.875 C-72.55640625 40.46990234 -73.6753125 41.06480469 -74.828125 41.67773438 C-80.75881005 44.84131863 -80.75881005 44.84131863 -86.54443359 48.25854492 C-88.8125 49.5625 -88.8125 49.5625 -90.8125 49.5625 C-88.95798229 32.74394282 -78.43804759 17.3568613 -65.8125 6.5625 C-46.54537138 -7.9740003 -21.88772429 -6.2573004 0 0 Z " fill="#016F3D" transform="translate(399.8125,89.4375)"/>
<path d="M0 0 C16.6061572 0.84438087 32.78990651 6.78990651 44.5625 18.5625 C46.94066046 24.24940545 46.69845056 29.93716116 46 36 C43.62576455 41.50822625 40.24357677 43.51620048 35 46 C21.0733772 49.41248373 2.77081354 46.38540677 -10 40 C-8.57169343 31.34528854 -6.58298038 22.87729545 -4.4375 14.375 C-3.96280273 12.45880859 -3.96280273 12.45880859 -3.47851562 10.50390625 C-3.17494141 9.29347656 -2.87136719 8.08304688 -2.55859375 6.8359375 C-2.28329834 5.73813965 -2.00800293 4.6403418 -1.72436523 3.50927734 C-1 1 -1 1 0 0 Z " fill="#FF9A34" transform="translate(194,212)"/>
<path d="M0 0 C12.51379883 1.0215346 26.73873977 4.01447085 35.52734375 13.6796875 C38.85244321 18.43659136 39.72001265 23.310886 39 29 C37.15337674 34.8353295 34.48425857 38.08284119 29 41 C16.7332105 45.08892983 2.94391073 40.21422161 -9 37 C-7.66469756 29.04649981 -5.9214612 21.25266588 -3.9375 13.4375 C-3.66873047 12.35919922 -3.39996094 11.28089844 -3.12304688 10.16992188 C-1.13384956 2.26769912 -1.13384956 2.26769912 0 0 Z " fill="#FF9A34" transform="translate(208,155)"/>
</svg>
